<svg xmlns="http://www.w3.org/2000/svg" viewBox="0 0 70 70"><ellipse cx="34" cy="65" rx="24" ry="3" fill="#354b4515"/><path d="M15 38Q3 25 5 24" fill="#ecede0" stroke="#354b45" stroke-width="4" stroke-linecap="round" stroke-linejoin="round"/><path d="M22 43L25 60L32 60" fill="#ecede0" stroke="#354b45" stroke-width="5" stroke-linecap="round" stroke-linejoin="round"/><path d="M40 43L37 60L44 60" fill="#ecede0" stroke="#354b45" stroke-width="5" stroke-linecap="round" stroke-linejoin="round"/><ellipse cx="30" cy="39" rx="21" ry="13" fill="#ecede0" stroke="#354b45" stroke-width="2"/><ellipse cx="31" cy="44" rx="13" ry="7" fill="#eddbb6" stroke="#354b45" stroke-width="2"/><ellipse cx="43" cy="13" rx="6" ry="6" fill="#415456" stroke="#354b45" stroke-width="2"/><ellipse cx="58" cy="15" rx="6" ry="6" fill="#415456" stroke="#354b45" stroke-width="2"/><ellipse cx="49" cy="26" rx="12" ry="12" fill="#ecede0" stroke="#354b45" stroke-width="2"/><ellipse cx="55" cy="32" rx="8" ry="5" fill="#f0dfbd" stroke="#354b45" stroke-width="2"/><ellipse cx="51" cy="26" rx="6" ry="7" fill="#465553" stroke="#354b45" stroke-width="2"/><ellipse cx="53" cy="25" rx="3.8" ry="4.3" fill="#fff9e9" stroke="#354b45" stroke-width="2"/><ellipse cx="54" cy="25" rx="1.6" ry="2" fill="#273d3a" stroke="#354b45" stroke-width="2"/><ellipse cx="62" cy="30" rx="2" ry="2" fill="#354b45" stroke="#354b45" stroke-width="2"/></svg>